<svg xmlns="http://www.w3.org/2000/svg" viewBox="0 0 356 356" fill="#000000">
	<g transform="translate(50,20)">
		<path d="M210.537 110.859c-.289 5.859-4.734 13.094-11.898 20.047v91.625c-.008 2.359-.937 4.359-2.508 5.922-1.578 1.531-3.625 2.438-6.031 2.453H40.779c-2.391-.016-4.445-.922-6.023-2.453-1.57-1.562-2.492-3.562-2.5-5.922V76.109c.008-2.352.93-4.359 2.5-5.922 1.578-1.531 3.633-2.438 6.023-2.453h79.305c6.414-8.422 13.891-17.047 22.359-24.953.039-.047.07-.094.109-.141H40.779c-9.375-.008-17.992 3.766-24.125 9.797-6.164 6.031-10.008 14.469-10 23.672v146.422c-.008 9.203 3.836 17.656 10 23.672 6.133 6.031 14.75 9.797 24.125 9.797h149.32c9.39 0 18.008-3.766 24.141-9.797 6.148-6.016 10-14.469 9.992-23.672v-97.781s-.063-.078-.164-.156c-4.281 3.329-9.328 6.672-14.578 9.281z"/>
		<path d="M249.029 0s-7.844 11.719-59.078 29.055C137.709 46.734 105.552 118.656 105.552 118.656c-7.742 14.734-38.344 75.953-38.344 75.953-8.43 15.812 7.016 25.156 16.078 8.828 17.367-31.344 28.578-59.984 54.984-60.797 38.523-1.188 64.867-34.828 56.578-33.266-10.906 4.75-34.953.359-20.789-1.828 34-2.727 54.953-28.281 48.125-30.016-12.055 4.641-23.297.234-25.5-1.094C256.693 69.141 249.029 0 249.029 0z"/>
	</g>
</svg>

