<svg data-name="Layer 1" id="Layer_1" viewBox="0 0 82 82" width="18" height="18" xmlns="http://www.w3.org/2000/svg">
    <!-- Define a group for all elements and center it using a transform -->
    <g transform="translate(15, 15)">
        <path d="M50,15.52H2a2,2,0,0,1-2-2V2A2,2,0,0,1,2,0H50a2,2,0,0,1,2,2V13.52A2,2,0,0,1,50,15.52Zm-46-4H48V4H4Z" fill="currentColor"/>
        <path d="M50,33.76H2a2,2,0,0,1-2-2V20.24a2,2,0,0,1,2-2H50a2,2,0,0,1,2,2V31.76A2,2,0,0,1,50,33.76Zm-46-4H48V22.24H4Z" fill="currentColor"/>
        <path d="M50,52H2a2,2,0,0,1-2-2V38.48a2,2,0,0,1,2-2H50a2,2,0,0,1,2,2V50A2,2,0,0,1,50,52ZM4,48H48V40.48H4Z" fill="currentColor"/>
    </g>
</svg>
