<?xml version="1.0" standalone="no"?>
<!DOCTYPE svg PUBLIC "-//W3C//DTD SVG 20010904//EN"
 "http://www.w3.org/TR/2001/REC-SVG-20010904/DTD/svg10.dtd">
<svg version="1.0" xmlns="http://www.w3.org/2000/svg"
 width="512.000000pt" height="512.000000pt" viewBox="0 0 512.000000 512.000000"
 preserveAspectRatio="xMidYMid meet">

<g transform="translate(0.000000,512.000000) scale(0.100000,-0.100000)"
fill="#000000" stroke="none">
<path d="M560 4393 c-94 -33 -164 -97 -209 -193 l-26 -55 0 -665 0 -665 27
-55 c61 -124 161 -195 296 -210 137 -15 142 -25 142 -295 0 -230 4 -250 63
-302 55 -48 145 -57 202 -19 13 8 132 133 266 277 133 144 256 270 273 280 57
35 128 50 268 56 l137 6 4 -459 c2 -313 7 -470 15 -494 22 -65 77 -144 127
-182 98 -74 74 -72 715 -78 l575 -5 63 -34 c53 -29 98 -72 293 -285 127 -138
249 -263 272 -278 81 -54 193 -27 243 58 23 40 24 47 24 253 0 272 5 282 132
295 136 14 242 86 300 204 l33 67 3 638 c3 712 4 703 -64 804 -20 28 -59 68
-88 88 -97 67 -75 65 -838 65 l-688 0 0 418 c0 238 -5 444 -10 481 -20 120
-94 220 -200 270 l-55 26 -1125 2 c-1003 2 -1130 0 -1170 -14z m2248 -145 c62
-15 125 -78 140 -140 8 -32 12 -181 12 -472 l0 -425 -347 -3 -348 -3 -63 -34
c-35 -19 -83 -56 -107 -83 -62 -69 -85 -137 -92 -275 l-6 -113 -146 0 c-164 0
-216 -10 -312 -61 -72 -38 -108 -73 -374 -362 -104 -114 -195 -207 -201 -207
-9 0 -13 58 -16 218 -4 249 -10 275 -90 348 -49 45 -83 59 -172 69 -33 4 -71
11 -85 17 -38 14 -81 57 -102 103 -17 38 -19 77 -19 655 0 574 2 618 19 655
21 47 80 102 119 111 15 3 32 7 37 9 6 2 482 4 1058 4 768 1 1061 -2 1095 -11z
m1721 -1218 c48 -24 87 -70 101 -118 8 -25 10 -235 8 -658 l-3 -620 -28 -43
c-36 -53 -110 -91 -182 -91 -94 0 -192 -67 -233 -159 -13 -28 -17 -81 -20
-251 -2 -118 -7 -219 -11 -223 -4 -4 -105 98 -224 227 -255 276 -299 316 -381
355 -104 49 -130 51 -689 51 -352 0 -535 4 -562 11 -52 15 -119 82 -134 134
-14 52 -15 1204 -1 1256 16 56 51 100 99 126 l44 23 1089 0 c1061 0 1090 -1
1127 -20z"/>
<path d="M1246 4165 c-129 -33 -269 -122 -353 -224 -284 -346 -145 -879 269
-1035 197 -74 425 -51 605 60 298 185 388 610 194 911 -78 122 -193 213 -334
265 -72 27 -97 31 -202 34 -82 2 -138 -1 -179 -11z m282 -160 c164 -39 297
-160 350 -320 30 -90 37 -187 18 -268 -56 -238 -252 -397 -490 -397 -145 0
-254 46 -357 149 -141 142 -184 336 -115 526 87 241 336 371 594 310z"/>
<path d="M1140 3797 c-38 -19 -55 -61 -40 -98 23 -54 84 -66 125 -24 33 33 32
70 -4 106 -33 32 -44 35 -81 16z"/>
<path d="M1605 3798 c-51 -30 -60 -84 -20 -123 48 -49 125 -16 125 52 0 57
-60 97 -105 71z"/>
<path d="M1262 3440 c-55 -20 -99 -47 -144 -88 -38 -35 -39 -92 -2 -121 38
-30 58 -26 125 18 112 75 217 75 328 0 67 -44 87 -48 125 -18 20 16 26 29 26
59 0 31 -6 44 -37 70 -20 18 -67 47 -103 64 -57 27 -77 31 -165 33 -79 2 -111
-1 -153 -17z"/>
<path d="M3261 2925 c-36 -8 -98 -30 -138 -49 -173 -83 -286 -210 -350 -395
-23 -65 -27 -93 -27 -196 -1 -99 3 -133 22 -195 97 -308 355 -487 676 -467
362 22 616 296 616 664 0 351 -278 635 -635 649 -65 2 -122 -1 -164 -11z m229
-155 c79 -13 190 -64 249 -116 160 -139 209 -389 117 -590 -90 -193 -310 -315
-516 -285 -304 43 -495 322 -425 620 44 186 186 324 375 365 80 18 117 19 200
6z"/>
<path d="M3111 2534 c-12 -15 -21 -37 -21 -49 0 -38 37 -75 75 -75 48 0 79 29
79 75 0 71 -90 104 -133 49z"/>
<path d="M3580 2538 c-26 -28 -26 -82 0 -108 46 -46 130 -11 130 55 0 65 -86
100 -130 53z"/>
<path d="M3133 2190 c-12 -5 -29 -20 -39 -34 -34 -53 5 -110 109 -160 135 -66
227 -70 370 -16 78 29 147 94 147 138 0 77 -79 98 -150 41 -21 -17 -59 -37
-85 -45 -90 -27 -162 -15 -242 40 -58 40 -81 47 -110 36z"/>
</g>
</svg>
