<?xml version="1.0" standalone="no"?>
<!DOCTYPE svg PUBLIC "-//W3C//DTD SVG 20010904//EN"
 "http://www.w3.org/TR/2001/REC-SVG-20010904/DTD/svg10.dtd">
<svg version="1.0" xmlns="http://www.w3.org/2000/svg"
 width="260.000000pt" height="280.000000pt" viewBox="0 0 260.000000 280.000000"
 preserveAspectRatio="xMidYMid meet">

<g transform="translate(0.000000,280.000000) scale(0.100000,-0.100000)"
fill="#000000" stroke="none">
<path d="M1747 2332 l-77 -77 130 -130 130 -130 77 77 77 77 -23 25 c-19 20
-26 23 -42 13 -23 -14 -36 -2 -19 18 11 13 10 19 -6 38 -10 12 -20 23 -20 25
-1 2 -11 -2 -23 -9 -24 -16 -39 -5 -22 15 10 12 9 20 -6 39 -16 22 -20 23 -40
10 -20 -13 -23 -13 -23 -1 0 8 5 19 11 25 9 9 8 15 -2 25 -43 41 -41 41 -122
-40z"/>
<path d="M814 2210 c-38 -15 -46 -56 -42 -231 l3 -164 75 -126 c58 -99 78
-125 92 -121 11 2 18 -1 18 -9 0 -12 -216 -119 -240 -119 -5 0 -26 30 -46 68
-21 37 -39 69 -41 71 -4 6 -74 -27 -101 -47 l-23 -18 55 -94 c70 -118 93 -140
151 -140 66 0 75 6 75 54 0 23 5 47 12 54 17 17 989 17 1006 0 7 -7 12 -31 12
-54 0 -48 9 -54 74 -54 58 0 84 23 141 121 l47 81 -48 49 c-26 26 -51 46 -55
43 -5 -2 -23 -32 -41 -65 -17 -34 -37 -63 -43 -65 -16 -6 -248 99 -253 115 -3
8 4 11 19 9 21 -3 33 13 96 122 l73 125 0 121 0 120 -64 62 c-35 34 -66 59
-70 55 -3 -3 -6 -71 -6 -150 l0 -144 -75 -130 c-63 -110 -72 -131 -57 -135 43
-14 62 -24 62 -35 0 -7 -10 -9 -27 -5 -16 4 -48 9 -73 12 l-45 6 -23 -50 c-25
-57 -70 -91 -131 -99 -46 -6 -102 10 -126 37 -27 30 -10 36 34 12 83 -47 178
-12 205 76 11 34 -10 27 -53 -18 -29 -30 -46 -40 -70 -40 -42 0 -83 22 -101
54 -21 41 -44 34 -35 -10 8 -47 -16 -43 -30 5 -9 32 -11 33 -55 28 -25 -3 -55
-9 -67 -12 -37 -12 -27 14 11 30 l35 15 -75 127 -74 128 0 146 c0 125 -3 150
-17 167 -21 25 -60 35 -89 22z"/>
<path d="M1414 2206 c-18 -8 -35 -19 -38 -25 -12 -19 -29 -12 -23 9 5 19 0 20
-61 20 -105 -1 -172 -40 -207 -122 -25 -62 -14 -142 13 -84 14 31 70 56 125
56 25 0 84 -11 131 -25 114 -33 131 -32 172 9 56 56 42 131 -32 162 -40 17
-41 17 -80 0z m82 -34 c17 -11 36 -51 29 -62 -10 -17 -23 -11 -29 14 -3 14
-16 26 -31 30 -14 4 -25 11 -25 16 0 12 40 13 56 2z"/>
<path d="M1153 2018 c-12 -6 -29 -26 -38 -45 -14 -30 -15 -42 -5 -81 23 -93
78 -151 161 -172 117 -30 219 57 251 214 6 31 9 59 6 61 -2 3 -18 -1 -35 -7
-27 -10 -47 -8 -131 15 -105 28 -172 33 -209 15z"/>
<path d="M1972 1757 c-29 -29 -52 -56 -52 -61 0 -16 194 -206 210 -206 20 0
110 90 110 111 0 16 -189 209 -206 209 -5 0 -33 -24 -62 -53z m78 -48 c0 -52
-3 -70 -12 -67 -13 5 -24 99 -14 124 14 36 26 9 26 -57z m58 -81 c-2 -35 -7
-63 -13 -63 -5 0 -11 28 -13 63 -2 51 0 62 13 62 13 0 15 -11 13 -62z"/>
<path d="M693 1703 c-9 -3 -10 -10 -3 -24 12 -21 19 -23 38 -11 7 5 10 16 6
25 -6 17 -18 20 -41 10z"/>
<path d="M1220 1655 c0 -74 30 -114 86 -115 47 0 74 35 74 97 l0 51 -57 -1
c-32 0 -68 3 -80 7 -22 7 -23 5 -23 -39z"/>
<path d="M485 1665 c-28 -27 -34 -58 -10 -49 9 4 15 0 15 -8 0 -8 -18 -23 -40
-33 -44 -20 -46 -24 -27 -47 11 -14 25 -8 126 46 63 34 116 66 118 71 1 6 -1
16 -6 24 -7 11 -20 8 -66 -17 -53 -29 -75 -33 -75 -13 0 4 12 13 27 20 22 10
24 14 12 22 -24 15 -49 10 -74 -16z"/>
<path d="M370 1515 c-10 -13 -9 -15 9 -15 11 0 21 4 21 9 0 18 -18 21 -30 6z"/>
<path d="M820 1080 l0 -290 485 0 485 0 0 290 0 290 -485 0 -485 0 0 -290z
m500 42 c0 -4 -14 -15 -30 -24 -32 -18 -40 -54 -18 -76 36 -36 102 14 78 58
-15 28 1 48 20 25 36 -43 -5 -125 -62 -125 -35 0 -78 40 -78 72 0 30 26 67 54
78 21 8 36 5 36 -8z"/>
<path d="M380 715 l0 -125 865 0 865 0 0 125 0 125 -145 0 -145 0 0 -25 c0
-16 6 -25 15 -25 26 0 17 -49 -14 -81 l-29 -29 -480 0 c-474 0 -480 0 -506 21
-37 29 -52 70 -32 85 9 6 16 21 16 33 0 21 -2 21 -205 21 l-205 0 0 -125z"/>
<path d="M800 752 c0 -5 8 -16 18 -25 17 -15 65 -17 486 -17 283 0 474 4 485
10 10 5 21 16 25 25 5 13 -51 15 -504 15 -281 0 -510 -4 -510 -8z"/>




</g>
</svg>
