<?xml version="1.0" standalone="no"?>
<!DOCTYPE svg PUBLIC "-//W3C//DTD SVG 20010904//EN"
 "http://www.w3.org/TR/2001/REC-SVG-20010904/DTD/svg10.dtd">
<svg version="1.0" xmlns="http://www.w3.org/2000/svg"
 width="512.000000pt" height="512.000000pt" viewBox="0 0 512.000000 512.000000"
 preserveAspectRatio="xMidYMid meet">

<g transform="translate(0.000000,512.000000) scale(0.100000,-0.100000)"
fill="#000000" stroke="none">
<path d="M2046 3913 c-75 -124 -135 -231 -133 -237 4 -10 338 -216 350 -216 3
0 17 20 32 45 l26 45 43 -25 44 -26 22 36 c12 19 23 35 25 35 1 0 179 -101
395 -225 266 -152 402 -225 422 -225 66 0 101 83 56 134 -13 14 -194 123 -403
242 -209 119 -381 218 -383 219 -2 2 4 15 13 29 20 31 12 47 -35 66 -17 7 -30
14 -30 17 0 2 12 25 26 49 15 25 25 46 23 48 -5 5 -319 195 -339 206 -14 8
-39 -27 -154 -217z m451 -145 c17 -13 5 -38 -19 -38 -10 0 -30 -11 -44 -25
-20 -20 -25 -34 -23 -63 4 -50 -12 -76 -40 -67 -11 3 -21 10 -21 15 0 20 115
198 125 193 5 -3 15 -10 22 -15z"/>
<path d="M2747 3920 c-31 -25 -41 -63 -24 -95 7 -14 116 -122 242 -241 175
-164 248 -225 303 -256 85 -47 116 -85 108 -137 -8 -50 -31 -79 -78 -93 -40
-12 -44 -11 -109 24 l-67 36 -42 -90 c-53 -114 -89 -256 -97 -379 -7 -116 4
-155 57 -203 51 -46 99 -59 365 -96 121 -17 229 -34 240 -39 11 -5 121 -79
245 -166 124 -87 240 -164 259 -172 56 -24 128 3 157 58 19 38 18 98 -5 132
-17 27 -513 380 -557 397 -12 5 -102 20 -200 34 -97 15 -180 29 -183 31 -9 10
40 160 99 298 58 137 58 139 43 175 -10 24 -14 59 -11 107 l3 71 -270 254
c-148 139 -298 280 -332 312 -68 64 -101 73 -146 38z"/>
<path d="M3690 3451 c-111 -36 -173 -120 -172 -232 0 -128 102 -229 232 -229
244 0 323 330 106 442 -43 22 -128 32 -166 19z"/>
<path d="M2520 2960 c-14 -4 -92 -29 -175 -55 -452 -142 -844 -350 -1205 -640
-160 -129 -275 -238 -266 -253 5 -9 34 13 92 67 282 264 660 500 1069 668 121
50 360 130 473 159 71 18 83 29 60 52 -14 14 -14 14 -48 2z"/>
<path d="M2865 2450 c-47 -60 -90 -110 -96 -110 -5 0 -116 47 -248 105 -131
58 -248 105 -260 105 -62 0 -131 -69 -131 -129 0 -37 26 -87 56 -108 16 -11
159 -77 318 -147 305 -136 323 -140 380 -103 11 8 78 87 148 175 l127 160 -46
16 c-62 21 -109 59 -133 107 -11 21 -22 39 -24 39 -2 0 -43 -49 -91 -110z"/>
<path d="M733 1876 c-59 -64 -173 -215 -173 -228 0 -19 17 -4 51 45 20 29 69
89 108 135 82 94 93 135 14 48z"/>
<path d="M348 1506 c-164 -29 -297 -92 -329 -156 -26 -51 -12 -166 26 -215 77
-102 269 -159 530 -159 263 0 452 56 530 158 36 48 53 171 30 215 -29 57 -122
108 -260 143 -104 26 -411 34 -527 14z m418 -31 c100 -18 201 -60 239 -101 77
-83 -21 -168 -242 -210 -121 -23 -346 -15 -453 16 -354 101 -184 306 256 309
61 1 151 -6 200 -14z"/>
<path d="M530 1420 c8 -5 12 -11 10 -13 -25 -22 -204 -126 -221 -129 -12 -2
-24 -9 -27 -16 -3 -10 16 -12 84 -10 59 2 89 7 92 16 2 6 -4 12 -14 12 -16 0
-16 1 2 15 13 10 46 14 107 15 86 0 90 -1 117 -30 25 -26 35 -30 84 -30 43 0
56 3 56 15 0 9 -9 15 -22 15 -17 0 -35 19 -72 75 l-48 75 -82 0 c-54 0 -76 -3
-66 -10z m104 -47 l17 -33 -68 0 -68 0 50 34 c28 18 51 33 51 32 1 0 9 -16 18
-33z"/>
<path d="M4365 1513 c-128 -16 -251 -56 -321 -104 -61 -41 -77 -76 -69 -147
10 -88 23 -118 67 -157 190 -172 799 -176 1000 -7 42 36 67 96 70 173 2 53 -1
69 -19 95 -41 58 -174 114 -328 139 -82 14 -320 18 -400 8z m420 -47 c101 -27
184 -73 202 -111 57 -120 -175 -215 -495 -202 -457 19 -555 244 -141 322 97
19 350 13 434 -9z"/>
<path d="M4435 1420 c-3 -5 1 -10 9 -10 22 0 21 -2 -25 -75 -30 -48 -46 -65
-66 -67 -15 -2 -28 -9 -31 -15 -5 -16 228 -18 333 -3 115 17 147 57 75 92 -27
13 -30 17 -14 18 11 0 28 6 37 13 27 20 4 40 -55 48 -79 11 -256 11 -263 -1z
m237 -28 c16 -16 -30 -32 -93 -32 -53 0 -54 1 -38 32 9 18 18 20 65 16 30 -3
60 -10 66 -16z m-9 -71 c23 -23 -16 -42 -102 -48 -44 -3 -81 -3 -81 1 0 4 7
21 16 38 16 31 16 31 86 26 38 -3 75 -11 81 -17z"/>
</g>
</svg>
