<?xml version="1.0" standalone="no"?>
<!DOCTYPE svg PUBLIC "-//W3C//DTD SVG 20010904//EN"
 "http://www.w3.org/TR/2001/REC-SVG-20010904/DTD/svg10.dtd">
<svg version="1.0" xmlns="http://www.w3.org/2000/svg"
 width="552.000000pt" height="552.000000pt" viewBox="0 0 552.000000 552.000000"
 preserveAspectRatio="xMidYMid meet">

<g transform="translate(0.000000,552.000000) scale(0.100000,-0.100000)"
fill="#000000" stroke="none">
<path d="M3300 4305 l0 -835 1010 0 1010 0 0 835 0 835 -1010 0 -1010 0 0
-835z m1985 -5 l0 -795 -972 -3 -973 -2 0 793 c0 437 3 797 7 800 3 4 441 6
972 5 l966 -3 0 -795z"/>
<path d="M3375 5048 c-3 -7 -4 -348 -3 -758 l3 -745 458 -3 457 -2 0 760 0
760 -455 0 c-355 0 -457 -3 -460 -12z m230 -99 c0 -7 -8 -15 -17 -17 -18 -3
-25 18 -11 32 10 10 28 1 28 -15z m553 -62 c2 -12 -3 -17 -17 -17 -12 0 -21 6
-21 13 0 31 32 34 38 4z m-318 -51 c0 -2 -16 -20 -35 -39 -32 -32 -35 -40 -35
-91 0 -48 4 -60 31 -91 59 -66 150 -66 208 1 36 41 40 26 8 -30 -31 -56 -67
-79 -129 -84 -102 -8 -176 51 -186 149 -7 70 19 124 77 161 42 26 61 34 61 24z
m-342 -118 c2 -9 -6 -18 -18 -21 -14 -4 -20 0 -20 12 0 33 32 41 38 9z m710
-171 c2 -10 -3 -17 -12 -17 -18 0 -29 16 -21 31 9 14 29 6 33 -14z m-252 -174
c-3 -8 -6 -17 -6 -19 0 -3 -9 0 -21 6 -16 9 -18 14 -9 25 14 17 43 7 36 -12z
m-51 -353 c-165 -165 -304 -300 -310 -300 -5 0 125 135 290 300 165 165 304
300 310 300 5 0 -125 -135 -290 -300z m-35 35 c-52 -52 -99 -95 -105 -95 -5 0
33 43 85 95 52 52 99 95 105 95 5 0 -33 -43 -85 -95z m60 -70 c-52 -52 -96
-92 -99 -89 -3 2 37 47 89 99 52 52 96 92 99 89 3 -2 -37 -47 -89 -99z"/>
<path d="M4337 5053 c-4 -3 -7 -345 -7 -760 l0 -753 460 0 460 0 0 760 0 760
-453 0 c-250 0 -457 -3 -460 -7z m758 -164 c0 -7 -8 -15 -17 -17 -18 -3 -25
18 -11 32 10 10 28 1 28 -15z m-545 -14 c0 -19 -20 -29 -32 -17 -8 8 -7 16 2
26 14 17 30 12 30 -9z m283 -121 c9 -9 -4 -34 -18 -34 -14 0 -27 25 -18 34 4
3 12 6 18 6 6 0 14 -3 18 -6z m-238 -205 c0 -7 -8 -15 -17 -17 -18 -3 -25 18
-11 32 10 10 28 1 28 -15z m200 -359 c-165 -165 -304 -300 -310 -300 -5 0 125
135 290 300 165 165 304 300 310 300 5 0 -125 -135 -290 -300z m-35 25 c-52
-52 -99 -95 -105 -95 -5 0 35 45 90 100 54 54 101 97 104 94 3 -2 -37 -47 -89
-99z m70 -60 c-52 -52 -99 -95 -105 -95 -5 0 33 43 85 95 52 52 99 95 105 95
5 0 -33 -43 -85 -95z"/>
<path d="M539 4966 c-161 -57 -278 -188 -323 -362 -22 -86 -20 -146 8 -237 76
-246 313 -399 553 -358 390 68 555 540 287 821 -110 116 -212 160 -367 160
-70 0 -108 -6 -158 -24z m151 -97 c0 -79 18 -76 22 4 l3 62 40 -3 c49 -5 145
-40 145 -53 0 -6 -5 -19 -11 -31 -17 -32 1 -35 26 -4 l23 29 66 -64 c36 -36
66 -70 66 -75 0 -6 -11 -16 -25 -22 -32 -15 -34 -37 -2 -28 12 4 28 8 36 9 17
2 46 -67 56 -136 l7 -47 -61 0 c-77 0 -80 -18 -3 -22 l57 -3 -2 -40 c-4 -52
-32 -135 -48 -141 -8 -3 -23 -1 -34 5 -31 17 -35 -5 -4 -27 l28 -20 -68 -69
-69 -68 -23 29 c-27 34 -44 19 -20 -18 16 -24 16 -24 -39 -45 -31 -11 -75 -22
-98 -23 l-43 -3 -3 58 c-4 76 -22 73 -22 -4 l0 -61 -47 7 c-69 10 -138 39
-136 56 1 8 5 24 9 37 9 31 -13 29 -28 -3 -6 -14 -15 -25 -21 -25 -5 0 -38 30
-75 66 l-65 66 29 23 c31 25 28 43 -4 26 -32 -17 -38 -14 -56 27 -18 41 -37
132 -30 144 3 5 30 8 60 8 72 0 70 18 -3 22 l-58 3 3 40 c4 36 39 145 47 145
2 0 16 -5 30 -12 37 -17 44 -1 10 26 l-29 24 68 68 68 68 24 -29 c25 -31 46
-27 26 5 -7 11 -12 24 -12 29 0 19 158 66 183 54 4 -2 7 -31 7 -64z"/>
<path d="M807 4559 c-109 -41 -109 -41 -124 -20 -17 24 -48 29 -39 6 3 -8 9
-22 12 -30 4 -10 0 -15 -10 -15 -20 0 -21 -29 -2 -36 8 -3 23 -1 33 5 17 8 35
-6 128 -99 73 -73 113 -106 119 -100 7 7 -24 45 -93 114 -87 87 -100 104 -84
111 10 4 47 17 83 30 114 40 120 43 114 60 -8 21 -14 20 -137 -26z"/>
<path d="M2666 4409 c-42 -50 -58 -89 -63 -154 -4 -50 -1 -70 22 -120 37 -82
38 -145 2 -209 -15 -26 -24 -52 -21 -57 22 -36 73 51 81 139 4 43 0 72 -16
117 -47 128 -45 168 10 237 16 20 29 44 29 52 0 28 -18 26 -44 -5z"/>
<path d="M2446 4393 c-31 -47 -56 -116 -56 -155 0 -16 14 -63 30 -105 37 -91
38 -135 5 -199 -29 -57 -31 -74 -10 -74 9 0 26 22 40 53 34 72 34 155 -1 242
-34 84 -29 139 15 201 17 25 31 51 31 59 0 28 -30 15 -54 -22z"/>
<path d="M2853 4382 c-36 -53 -57 -131 -48 -174 4 -16 18 -56 31 -88 31 -76
30 -124 -1 -186 -29 -56 -31 -74 -10 -74 39 0 81 138 65 219 -5 25 -18 66 -29
91 -11 25 -21 58 -21 73 0 35 23 91 56 134 24 32 25 53 1 53 -7 0 -26 -21 -44
-48z"/>
<path d="M2491 3700 c-70 -26 -152 -88 -191 -146 -18 -25 -30 -47 -28 -49 2
-2 55 -15 118 -29 l115 -24 25 23 c81 73 183 56 237 -40 31 -56 74 -65 120
-25 18 16 50 32 70 35 21 4 41 7 46 8 18 4 -48 109 -98 156 -82 78 -148 105
-265 108 -75 2 -107 -2 -149 -17z"/>
<path d="M1120 3472 c-43 -21 -80 -75 -80 -116 0 -17 18 -139 38 -271 l38
-240 -128 -3 -128 -3 0 -29 0 -30 345 0 345 0 0 -25 c0 -14 -3 -26 -7 -27 -5
0 -188 -2 -408 -3 l-400 -2 -3 -26 -3 -27 345 0 346 0 0 -30 0 -30 -281 0
-280 0 3 -27 3 -28 343 -3 342 -2 0 -25 0 -25 -410 0 -410 0 0 -30 0 -30 345
0 345 0 0 -25 0 -25 -277 -2 -278 -3 -3 -27 -3 -28 345 0 346 0 0 -25 c0 -25
0 -25 100 -25 l99 0 -24 36 c-14 20 -25 40 -25 43 0 3 -20 160 -44 349 -46
361 -46 385 -7 441 25 35 129 88 238 123 61 19 74 27 87 55 9 18 34 53 56 77
22 24 40 46 40 50 0 4 -16 14 -35 22 -28 11 -111 14 -457 14 -383 0 -426 -2
-458 -18z"/>
<path d="M2603 3479 c-45 -13 -73 -53 -73 -105 0 -109 135 -147 198 -54 40 59
16 126 -55 156 -18 8 -34 14 -35 13 -2 0 -17 -5 -35 -10z"/>
<path d="M2134 3431 c-50 -29 -114 -92 -114 -112 0 -7 18 -9 53 -4 107 13 104
11 111 66 4 27 9 56 12 64 9 22 -4 19 -62 -14z"/>
<path d="M2241 3438 c-17 -46 -22 -127 -12 -184 32 -174 161 -302 336 -335
155 -28 335 59 413 199 l23 42 -28 0 c-64 0 -133 73 -133 141 0 32 -4 38 -27
44 -15 3 -29 3 -30 -2 -2 -4 -12 -23 -23 -41 -74 -121 -251 -80 -268 64 -3 29
-10 45 -21 48 -20 6 -209 46 -216 46 -3 0 -9 -10 -14 -22z m437 -283 c111 -23
135 -39 113 -73 -6 -10 -22 -9 -82 8 -78 21 -213 27 -281 11 -38 -9 -48 -1
-48 34 0 32 182 45 298 20z"/>
<path d="M2911 3384 c-88 -73 -10 -218 100 -185 52 16 79 53 79 108 0 36 -6
50 -29 74 -40 39 -105 41 -150 3z"/>
<path d="M2080 3273 c-184 -30 -376 -107 -405 -163 -8 -16 -15 -43 -15 -61 0
-74 82 -673 95 -700 17 -32 62 -59 98 -59 14 0 89 16 168 35 369 88 658 115
764 71 20 -9 58 -11 113 -8 96 5 112 18 112 89 0 50 -39 102 -101 134 -134 68
-409 65 -759 -8 -69 -14 -139 -28 -156 -30 l-31 -5 -7 64 c-4 34 -10 80 -13
101 -5 33 -3 37 15 37 23 0 28 -11 37 -94 l7 -58 31 7 c196 42 326 61 575 81
47 4 65 10 69 22 3 10 13 33 21 52 12 29 16 31 19 15 20 -94 18 -91 86 -105
180 -35 283 -145 243 -260 l-14 -40 224 3 223 2 10 45 c19 91 33 181 28 186
-22 23 -350 21 -473 -2 -38 -7 -32 -22 -85 211 -17 77 -33 142 -35 144 -2 3
-14 -5 -27 -16 -32 -30 -97 -61 -164 -78 -235 -61 -480 88 -539 328 l-17 67
-36 -1 c-20 -1 -47 -4 -61 -6z"/>
<path d="M3683 3198 c-4 -7 -44 -202 -88 -433 l-80 -420 -338 -3 c-289 -2
-339 -4 -343 -17 -4 -9 -1 -22 6 -30 19 -22 1791 -23 1810 0 19 23 179 877
168 898 -8 16 -45 17 -568 17 -436 0 -561 -3 -567 -12z m577 -253 c26 -31 -19
-83 -60 -70 -14 4 -20 15 -20 35 0 44 53 67 80 35z"/>
<path d="M2395 2355 c-99 -15 -348 -64 -354 -71 -2 -2 135 -4 306 -4 l311 0
-13 43 -12 42 -74 2 c-41 1 -115 -5 -164 -12z"/>
<path d="M730 2245 l0 -25 -134 0 -134 0 -4 -45 -3 -45 67 0 68 0 0 -85 0 -85
55 0 55 0 0 -755 0 -755 60 0 60 0 0 265 0 265 1875 0 1875 0 0 -265 0 -265
60 0 60 0 0 755 0 755 50 0 49 0 3 83 3 82 68 3 67 3 0 44 0 45 -1755 0 -1755
0 0 25 0 25 -345 0 -345 0 0 -25z"/>
<path d="M2040 907 c0 -27 19 -20 -352 -132 l-198 -60 0 -36 c0 -23 -6 -39
-15 -43 -8 -3 -22 -21 -31 -40 -34 -69 7 -143 85 -153 36 -5 44 -2 76 30 44
44 49 99 11 144 l-25 30 207 63 c114 34 215 65 225 67 15 5 17 -3 17 -63 0
-60 -4 -72 -25 -92 -33 -31 -41 -81 -21 -120 15 -29 52 -59 61 -50 3 2 -3 26
-11 53 -19 63 -14 88 43 249 60 169 60 170 1 174 -45 3 -48 2 -48 -21z"/>
<path d="M2184 893 c-50 -118 -104 -290 -104 -330 0 -138 144 -224 270 -161
25 13 54 37 66 55 18 28 175 445 174 466 0 4 -88 7 -196 7 l-195 0 -15 -37z"/>
<path d="M2632 903 c-6 -16 -33 -91 -60 -168 -28 -77 -57 -160 -66 -184 l-16
-44 41 7 c23 4 54 16 69 26 28 20 352 365 358 381 2 5 -67 9 -156 9 l-160 0
-10 -27z"/>
<path d="M2675 551 c-26 -28 -61 -55 -77 -62 -36 -15 -35 -24 3 -39 23 -10 39
-10 70 -1 46 14 71 47 72 96 2 58 -14 60 -68 6z"/>
</g>
</svg>
